<svg width="32" height="32" viewBox="0 0 32 32" fill="none" xmlns="http://www.w3.org/2000/svg">
<path d="M8.92878 22.9536C8.1936 22.2184 8.1936 21.0265 8.92878 20.2913L20.4086 8.81147C21.1438 8.07629 22.3357 8.07629 23.0709 8.81147C23.8061 9.54664 23.8061 10.7386 23.0709 11.4738L11.5911 22.9536C10.8559 23.6888 9.66395 23.6888 8.92878 22.9536Z" fill="#D9D9D9"/>
<path d="M8.92858 8.81145C9.66375 8.07628 10.8557 8.07628 11.5909 8.81145L23.0707 20.2913C23.8059 21.0265 23.8059 22.2184 23.0707 22.9536C22.3355 23.6888 21.1436 23.6888 20.4084 22.9536L8.92858 11.4738C8.1934 10.7386 8.1934 9.54663 8.92858 8.81145Z" fill="#D9D9D9"/>
</svg>
