<svg width="100" height="97" viewBox="0 0 100 97" fill="none" xmlns="http://www.w3.org/2000/svg">
<path d="M8.33331 20.2084C8.33331 17.9763 10.1988 16.1667 12.5 16.1667H87.5C89.8012 16.1667 91.6667 17.9763 91.6667 20.2084V76.7917C91.6667 79.024 89.8012 80.8334 87.5 80.8334H12.5C10.1988 80.8334 8.33331 79.024 8.33331 76.7917V20.2084Z" fill="#2F88FF" stroke="black" stroke-width="4" stroke-linejoin="round"/>
<path d="M75 16.1667V80.8334" stroke="white" stroke-width="4" stroke-linecap="round" stroke-linejoin="round"/>
<path d="M25 16.1667V80.8334" stroke="white" stroke-width="4" stroke-linecap="round" stroke-linejoin="round"/>
<path d="M79.1666 36.375H91.6666" stroke="white" stroke-width="4" stroke-linecap="round" stroke-linejoin="round"/>
<path d="M79.1666 60.625H91.6666" stroke="white" stroke-width="4" stroke-linecap="round" stroke-linejoin="round"/>
<path d="M8.33331 36.375H20.8333" stroke="white" stroke-width="4" stroke-linecap="round" stroke-linejoin="round"/>
<path d="M8.33331 32.3335V40.4168" stroke="black" stroke-width="4" stroke-linecap="round" stroke-linejoin="round"/>
<path d="M18.75 16.1667H31.25" stroke="black" stroke-width="4" stroke-linecap="round" stroke-linejoin="round"/>
<path d="M18.75 80.8335H31.25" stroke="black" stroke-width="4" stroke-linecap="round" stroke-linejoin="round"/>
<path d="M68.75 16.1667H81.25" stroke="black" stroke-width="4" stroke-linecap="round" stroke-linejoin="round"/>
<path d="M68.75 80.8335H81.25" stroke="black" stroke-width="4" stroke-linecap="round" stroke-linejoin="round"/>
<path d="M8.33331 60.625H20.8333" stroke="white" stroke-width="4" stroke-linecap="round" stroke-linejoin="round"/>
<path d="M8.33331 56.5835V64.6668" stroke="black" stroke-width="4" stroke-linecap="round" stroke-linejoin="round"/>
<path d="M91.6666 56.5835V64.6668" stroke="black" stroke-width="4" stroke-linecap="round" stroke-linejoin="round"/>
<path d="M91.6666 32.3335V40.4168" stroke="black" stroke-width="4" stroke-linecap="round" stroke-linejoin="round"/>
<path d="M43.75 38.396L60.4167 48.5002L43.75 58.6043V38.396Z" fill="#43CCF8" stroke="white" stroke-width="4" stroke-linejoin="round"/>
</svg>
