<svg width="46" height="32" viewBox="0 0 46 32" fill="none" xmlns="http://www.w3.org/2000/svg">
<g clip-path="url(#clip0_9_72)">
<path d="M44.4163 4.99111C44.1557 4.02641 43.6476 3.14692 42.9423 2.44023C42.2371 1.73353 41.3594 1.22429 40.3966 0.9632C36.872 0 22.6866 0 22.6866 0C22.6866 0 8.50055 0.0291555 4.97594 0.992355C4.01317 1.25346 3.13547 1.76273 2.43022 2.46946C1.72498 3.17619 1.21682 4.05571 0.956324 5.02044C-0.109788 11.2956 -0.523353 20.8576 0.985599 26.8818C1.24612 27.8465 1.7543 28.726 2.45954 29.4327C3.16478 30.1394 4.04247 30.6486 5.00521 30.9097C8.52982 31.8729 22.7156 31.8729 22.7156 31.8729C22.7156 31.8729 36.9011 31.8729 40.4256 30.9097C41.3883 30.6486 42.2661 30.1394 42.9713 29.4327C43.6766 28.726 44.1848 27.8465 44.4454 26.8818C45.5698 20.5977 45.9163 11.0416 44.4163 4.99111Z" fill="#FF0000"/>
<path d="M18.1715 22.7662L29.9393 15.9363L18.1715 9.10645V22.7662Z" fill="white"/>
</g>
<defs>
<clipPath id="clip0_9_72">
<rect width="45.4194" height="32" fill="white"/>
</clipPath>
</defs>
</svg>
